# xmcd
#
# Track frame offsets: 
#        150
#        23172
#        42910
#        62392
#        79085
#        92932
#        111675
#        128242
#        155417
#        170330
#        181795
#        198280
#        232217
#
# Disc length: 3301 seconds
#
# Revision: 0
# Processed by: cddbd v1.5.2PL0 Copyright (c) Steve Scherf et al.
# Submitted via: ExactAudioCopyFreeDBPlugin 1.0
#
DISCID=aa0ce30d
DTITLE=รวมศิลปิน - รวมเพลงเพื่อชีวิตพันล้าน
DYEAR=1900
DGENRE=Country
TTITLE0=หงา,หว่อง,แก้ว ลายทอง,สุเทพ โฮป - น้ำตาจ่าโท
TTITLE1=พงษ์สิทธิ์ คำภีร์ - คิดถึง
TTITLE2=ฤทธิพร อินสว่าง - ใบไผ่
TTITLE3=ยิ่งยง ยอดบัวงาม - ยอดมะพร้าว
TTITLE4=โฮป - กำลังใจ
TTITLE5=แก้ว ลายทอง - หมาเศร้า
TTITLE6=คนด่านเกวียน - เด็กปั๊ม
TTITLE7=มงคล อุทก - คนตีเหล็ก
TTITLE8=สุรชัย จันทิมาธร - ดอกไม้ให้คุณ
TTITLE9=เป้ สีน้ำ - ฝากรัก
TTITLE10=พงษ์สิทธิ์ คำภีร์ - ไถ่เธอคืนมา
TTITLE11=คาราวาน - เซิ้งอีสาน
TTITLE12=วิสา คันทัพ - กำลังใจ
EXTD=
EXTT0=
EXTT1=
EXTT2=
EXTT3=
EXTT4=
EXTT5=
EXTT6=
EXTT7=
EXTT8=
EXTT9=
EXTT10=
EXTT11=
EXTT12=
PLAYORDER=
